<svg xmlns="http://www.w3.org/2000/svg" width="600" height="360" viewBox="0 0 600 360">
  <rect width="600" height="360" fill="#131313"/>
  <!-- Chessboard centered -->
  <g transform="translate(168, 20)">
    <!-- Board squares 8x8 each 32px -->
    <rect x="0" y="0" width="264" height="264" fill="#1a1a1a" stroke="#ffb320" stroke-width="2"/>
    <!-- Light squares -->
    <rect x="0" y="0" width="33" height="33" fill="#c8a96e"/><rect x="66" y="0" width="33" height="33" fill="#c8a96e"/>
    <rect x="132" y="0" width="33" height="33" fill="#c8a96e"/><rect x="198" y="0" width="33" height="33" fill="#c8a96e"/>
    <rect x="33" y="33" width="33" height="33" fill="#c8a96e"/><rect x="99" y="33" width="33" height="33" fill="#c8a96e"/>
    <rect x="165" y="33" width="33" height="33" fill="#c8a96e"/><rect x="231" y="33" width="33" height="33" fill="#c8a96e"/>
    <rect x="0" y="66" width="33" height="33" fill="#c8a96e"/><rect x="66" y="66" width="33" height="33" fill="#c8a96e"/>
    <rect x="132" y="66" width="33" height="33" fill="#c8a96e"/><rect x="198" y="66" width="33" height="33" fill="#c8a96e"/>
    <rect x="33" y="99" width="33" height="33" fill="#c8a96e"/><rect x="99" y="99" width="33" height="33" fill="#c8a96e"/>
    <rect x="165" y="99" width="33" height="33" fill="#c8a96e"/><rect x="231" y="99" width="33" height="33" fill="#c8a96e"/>
    <rect x="0" y="132" width="33" height="33" fill="#c8a96e"/><rect x="66" y="132" width="33" height="33" fill="#c8a96e"/>
    <rect x="132" y="132" width="33" height="33" fill="#c8a96e"/><rect x="198" y="132" width="33" height="33" fill="#c8a96e"/>
    <rect x="33" y="165" width="33" height="33" fill="#c8a96e"/><rect x="99" y="165" width="33" height="33" fill="#c8a96e"/>
    <rect x="165" y="165" width="33" height="33" fill="#c8a96e"/><rect x="231" y="165" width="33" height="33" fill="#c8a96e"/>
    <rect x="0" y="198" width="33" height="33" fill="#c8a96e"/><rect x="66" y="198" width="33" height="33" fill="#c8a96e"/>
    <rect x="132" y="198" width="33" height="33" fill="#c8a96e"/><rect x="198" y="198" width="33" height="33" fill="#c8a96e"/>
    <rect x="33" y="231" width="33" height="33" fill="#c8a96e"/><rect x="99" y="231" width="33" height="33" fill="#c8a96e"/>
    <rect x="165" y="231" width="33" height="33" fill="#c8a96e"/><rect x="231" y="231" width="33" height="33" fill="#c8a96e"/>
    <!-- Dark squares -->
    <rect x="33" y="0" width="33" height="33" fill="#4a3728"/><rect x="99" y="0" width="33" height="33" fill="#4a3728"/>
    <rect x="165" y="0" width="33" height="33" fill="#4a3728"/><rect x="231" y="0" width="33" height="33" fill="#4a3728"/>
    <rect x="0" y="33" width="33" height="33" fill="#4a3728"/><rect x="66" y="33" width="33" height="33" fill="#4a3728"/>
    <rect x="132" y="33" width="33" height="33" fill="#4a3728"/><rect x="198" y="33" width="33" height="33" fill="#4a3728"/>
    <rect x="33" y="66" width="33" height="33" fill="#4a3728"/><rect x="99" y="66" width="33" height="33" fill="#4a3728"/>
    <rect x="165" y="66" width="33" height="33" fill="#4a3728"/><rect x="231" y="66" width="33" height="33" fill="#4a3728"/>
    <rect x="0" y="99" width="33" height="33" fill="#4a3728"/><rect x="66" y="99" width="33" height="33" fill="#4a3728"/>
    <rect x="132" y="99" width="33" height="33" fill="#4a3728"/><rect x="198" y="99" width="33" height="33" fill="#4a3728"/>
    <rect x="33" y="132" width="33" height="33" fill="#4a3728"/><rect x="99" y="132" width="33" height="33" fill="#4a3728"/>
    <rect x="165" y="132" width="33" height="33" fill="#4a3728"/><rect x="231" y="132" width="33" height="33" fill="#4a3728"/>
    <rect x="0" y="165" width="33" height="33" fill="#4a3728"/><rect x="66" y="165" width="33" height="33" fill="#4a3728"/>
    <rect x="132" y="165" width="33" height="33" fill="#4a3728"/><rect x="198" y="165" width="33" height="33" fill="#4a3728"/>
    <rect x="33" y="198" width="33" height="33" fill="#4a3728"/><rect x="99" y="198" width="33" height="33" fill="#4a3728"/>
    <rect x="165" y="198" width="33" height="33" fill="#4a3728"/><rect x="231" y="198" width="33" height="33" fill="#4a3728"/>
    <rect x="0" y="231" width="33" height="33" fill="#4a3728"/><rect x="66" y="231" width="33" height="33" fill="#4a3728"/>
    <rect x="132" y="231" width="33" height="33" fill="#4a3728"/><rect x="198" y="231" width="33" height="33" fill="#4a3728"/>
    <!-- Pieces (text symbols) -->
    <text x="16" y="26" text-anchor="middle" font-size="24" fill="#fff">♜</text>
    <text x="49" y="26" text-anchor="middle" font-size="24" fill="#fff">♞</text>
    <text x="82" y="26" text-anchor="middle" font-size="24" fill="#fff">♝</text>
    <text x="115" y="26" text-anchor="middle" font-size="24" fill="#fff">♛</text>
    <text x="148" y="26" text-anchor="middle" font-size="24" fill="#fff">♚</text>
    <text x="181" y="26" text-anchor="middle" font-size="24" fill="#fff">♝</text>
    <text x="214" y="26" text-anchor="middle" font-size="24" fill="#fff">♞</text>
    <text x="247" y="26" text-anchor="middle" font-size="24" fill="#fff">♜</text>
    <text x="16" y="59" text-anchor="middle" font-size="20" fill="#fff">♟</text>
    <text x="49" y="59" text-anchor="middle" font-size="20" fill="#fff">♟</text>
    <text x="82" y="59" text-anchor="middle" font-size="20" fill="#fff">♟</text>
    <text x="115" y="59" text-anchor="middle" font-size="20" fill="#fff">♟</text>
    <text x="148" y="59" text-anchor="middle" font-size="20" fill="#fff">♟</text>
    <text x="181" y="59" text-anchor="middle" font-size="20" fill="#fff">♟</text>
    <text x="214" y="59" text-anchor="middle" font-size="20" fill="#fff">♟</text>
    <text x="247" y="59" text-anchor="middle" font-size="20" fill="#fff">♟</text>
    <text x="16" y="257" text-anchor="middle" font-size="24" fill="#ffb320">♖</text>
    <text x="49" y="257" text-anchor="middle" font-size="24" fill="#ffb320">♘</text>
    <text x="82" y="257" text-anchor="middle" font-size="24" fill="#ffb320">♗</text>
    <text x="115" y="257" text-anchor="middle" font-size="24" fill="#ffb320">♕</text>
    <text x="148" y="257" text-anchor="middle" font-size="24" fill="#ffb320">♔</text>
    <text x="181" y="257" text-anchor="middle" font-size="24" fill="#ffb320">♗</text>
    <text x="214" y="257" text-anchor="middle" font-size="24" fill="#ffb320">♘</text>
    <text x="247" y="257" text-anchor="middle" font-size="24" fill="#ffb320">♖</text>
    <text x="16" y="224" text-anchor="middle" font-size="20" fill="#ffb320">♙</text>
    <text x="49" y="224" text-anchor="middle" font-size="20" fill="#ffb320">♙</text>
    <text x="82" y="224" text-anchor="middle" font-size="20" fill="#ffb320">♙</text>
    <text x="115" y="224" text-anchor="middle" font-size="20" fill="#ffb320">♙</text>
    <text x="148" y="224" text-anchor="middle" font-size="20" fill="#ffb320">♙</text>
    <text x="181" y="224" text-anchor="middle" font-size="20" fill="#ffb320">♙</text>
    <text x="214" y="224" text-anchor="middle" font-size="20" fill="#ffb320">♙</text>
    <text x="247" y="224" text-anchor="middle" font-size="20" fill="#ffb320">♙</text>
  </g>
  <text x="300" y="308" text-anchor="middle" font-family="Roboto,sans-serif" font-size="22" font-weight="800" fill="#ffb320">CHESS ARENA</text>
  <text x="300" y="330" text-anchor="middle" font-family="Roboto,sans-serif" font-size="12" fill="#878787">Beat the AI to earn PlayPoints</text>
</svg>
